<svg width="50" height="50" viewBox="0 0 50 50" fill="none" xmlns="http://www.w3.org/2000/svg">
<path d="M32.1172 20.5742L22.7422 14.3242C22.5068 14.1672 22.2332 14.077 21.9506 14.0633C21.668 14.0496 21.387 14.1129 21.1375 14.2465C20.8881 14.38 20.6796 14.5788 20.5343 14.8216C20.389 15.0644 20.3123 15.3421 20.3125 15.625V28.125C20.3123 28.4079 20.389 28.6856 20.5343 28.9284C20.6796 29.1712 20.8881 29.37 21.1375 29.5035C21.387 29.6371 21.668 29.7004 21.9506 29.6867C22.2332 29.673 22.5068 29.5828 22.7422 29.4258L32.1172 23.1758C32.3315 23.0332 32.5073 22.8398 32.6288 22.6128C32.7504 22.3859 32.814 22.1324 32.814 21.875C32.814 21.6176 32.7504 21.3641 32.6288 21.1372C32.5073 20.9102 32.3315 20.7168 32.1172 20.5742ZM23.4375 25.2051V18.5547L28.4336 21.875L23.4375 25.2051ZM42.1875 7.8125H7.8125C6.9837 7.8125 6.18884 8.14174 5.60279 8.72779C5.01674 9.31384 4.6875 10.1087 4.6875 10.9375V32.8125C4.6875 33.6413 5.01674 34.4362 5.60279 35.0222C6.18884 35.6083 6.9837 35.9375 7.8125 35.9375H42.1875C43.0163 35.9375 43.8112 35.6083 44.3972 35.0222C44.9833 34.4362 45.3125 33.6413 45.3125 32.8125V10.9375C45.3125 10.1087 44.9833 9.31384 44.3972 8.72779C43.8112 8.14174 43.0163 7.8125 42.1875 7.8125ZM42.1875 32.8125H7.8125V10.9375H42.1875V32.8125ZM45.3125 40.625C45.3125 41.0394 45.1479 41.4368 44.8549 41.7299C44.5618 42.0229 44.1644 42.1875 43.75 42.1875H6.25C5.8356 42.1875 5.43817 42.0229 5.14515 41.7299C4.85212 41.4368 4.6875 41.0394 4.6875 40.625C4.6875 40.2106 4.85212 39.8132 5.14515 39.5201C5.43817 39.2271 5.8356 39.0625 6.25 39.0625H43.75C44.1644 39.0625 44.5618 39.2271 44.8549 39.5201C45.1479 39.8132 45.3125 40.2106 45.3125 40.625Z" fill="#F8F8F8"/>
</svg>
