<svg width="50" height="50" viewBox="0 0 50 50" fill="none" xmlns="http://www.w3.org/2000/svg">
<path d="M49.1714 17.3711L25.7339 4.87108C25.5078 4.7507 25.2556 4.68774 24.9995 4.68774C24.7434 4.68774 24.4912 4.7507 24.2651 4.87108L0.827637 17.3711C0.577645 17.5043 0.368576 17.703 0.222793 17.9459C0.0770104 18.1888 0 18.4667 0 18.75C0 19.0333 0.0770104 19.3112 0.222793 19.5541C0.368576 19.797 0.577645 19.9957 0.827637 20.1289L6.24951 23.0215V32.4785C6.24789 33.246 6.53035 33.9869 7.04248 34.5586C9.60107 37.4082 15.3335 42.1875 24.9995 42.1875C28.2045 42.214 31.3855 41.6335 34.3745 40.4765V46.875C34.3745 47.2894 34.5391 47.6868 34.8322 47.9798C35.1252 48.2729 35.5226 48.4375 35.937 48.4375C36.3514 48.4375 36.7488 48.2729 37.0419 47.9798C37.3349 47.6868 37.4995 47.2894 37.4995 46.875V38.9668C39.537 37.7906 41.3782 36.3032 42.9565 34.5586C43.4687 33.9869 43.7511 33.246 43.7495 32.4785V23.0215L49.1714 20.1289C49.4214 19.9957 49.6304 19.797 49.7762 19.5541C49.922 19.3112 49.999 19.0333 49.999 18.75C49.999 18.4667 49.922 18.1888 49.7762 17.9459C49.6304 17.703 49.4214 17.5043 49.1714 17.3711ZM24.9995 39.0625C16.5483 39.0625 11.5776 34.9336 9.37451 32.4785V24.6875L24.2651 32.6289C24.4912 32.7493 24.7434 32.8122 24.9995 32.8122C25.2556 32.8122 25.5078 32.7493 25.7339 32.6289L34.3745 28.0215V37.0723C31.9136 38.2207 28.812 39.0625 24.9995 39.0625ZM40.6245 32.4707C39.6879 33.51 38.6399 34.4434 37.4995 35.2539V26.3535L40.6245 24.6875V32.4707ZM36.7183 23.2305L36.6753 23.2051L25.7378 17.3711C25.3729 17.1847 24.9493 17.1491 24.5584 17.272C24.1675 17.3949 23.8406 17.6664 23.6479 18.0281C23.4553 18.3898 23.4125 18.8126 23.5287 19.2056C23.6448 19.5985 23.9107 19.9301 24.269 20.1289L33.3979 25L24.9995 29.4785L4.88232 18.75L24.9995 8.02147L45.1167 18.75L36.7183 23.2305Z" fill="#F8F8F8"/>
</svg>
