<svg width="50" height="50" viewBox="0 0 50 50" fill="none" xmlns="http://www.w3.org/2000/svg">
<path d="M16.667 37.5L25.0003 31.1459L33.3337 37.5L30.2087 27.1875L38.542 21.25H28.3337L25.0003 10.4167L21.667 21.25H11.4587L19.792 27.1875L16.667 37.5ZM25.0003 45.8334C22.1184 45.8334 19.41 45.2861 16.8753 44.1917C14.3406 43.0972 12.1357 41.6132 10.2607 39.7396C8.38574 37.8646 6.90171 35.6597 5.80866 33.125C4.7156 30.5903 4.16838 27.882 4.16699 25C4.16699 22.1181 4.71421 19.4097 5.80866 16.875C6.9031 14.3403 8.38713 12.1354 10.2607 10.2604C12.1357 8.38544 14.3406 6.90141 16.8753 5.80835C19.41 4.7153 22.1184 4.16808 25.0003 4.16669C27.8823 4.16669 30.5906 4.71391 33.1253 5.80835C35.66 6.9028 37.8649 8.38683 39.7399 10.2604C41.6149 12.1354 43.0996 14.3403 44.1941 16.875C45.2885 19.4097 45.835 22.1181 45.8337 25C45.8337 27.882 45.2864 30.5903 44.192 33.125C43.0975 35.6597 41.6135 37.8646 39.7399 39.7396C37.8649 41.6146 35.66 43.0993 33.1253 44.1938C30.5906 45.2882 27.8823 45.8347 25.0003 45.8334ZM25.0003 41.6667C29.6531 41.6667 33.5941 40.0521 36.8232 36.8229C40.0524 33.5938 41.667 29.6528 41.667 25C41.667 20.3472 40.0524 16.4063 36.8232 13.1771C33.5941 9.94794 29.6531 8.33335 25.0003 8.33335C20.3475 8.33335 16.4066 9.94794 13.1774 13.1771C9.94824 16.4063 8.33366 20.3472 8.33366 25C8.33366 29.6528 9.94824 33.5938 13.1774 36.8229C16.4066 40.0521 20.3475 41.6667 25.0003 41.6667Z" fill="#F8F8F8"/>
</svg>
