<svg width="50" height="50" viewBox="0 0 50 50" fill="none" xmlns="http://www.w3.org/2000/svg">
<path d="M20.833 15.625C20.833 15.3487 20.9428 15.0838 21.1381 14.8884C21.3335 14.6931 21.5984 14.5833 21.8747 14.5833H30.208C30.4843 14.5833 30.7492 14.6931 30.9446 14.8884C31.1399 15.0838 31.2497 15.3487 31.2497 15.625C31.2497 15.9012 31.1399 16.1662 30.9446 16.3615C30.7492 16.5569 30.4843 16.6666 30.208 16.6666H21.8747C21.5984 16.6666 21.3335 16.5569 21.1381 16.3615C20.9428 16.1662 20.833 15.9012 20.833 15.625ZM21.8747 18.75C21.5984 18.75 21.3335 18.8597 21.1381 19.0551C20.9428 19.2504 20.833 19.5154 20.833 19.7916C20.833 20.0679 20.9428 20.3329 21.1381 20.5282C21.3335 20.7236 21.5984 20.8333 21.8747 20.8333H30.208C30.4843 20.8333 30.7492 20.7236 30.9446 20.5282C31.1399 20.3329 31.2497 20.0679 31.2497 19.7916C31.2497 19.5154 31.1399 19.2504 30.9446 19.0551C30.7492 18.8597 30.4843 18.75 30.208 18.75H21.8747ZM20.833 29.1666C20.833 28.8904 20.9428 28.6254 21.1381 28.4301C21.3335 28.2347 21.5984 28.125 21.8747 28.125H30.208C30.4843 28.125 30.7492 28.2347 30.9446 28.4301C31.1399 28.6254 31.2497 28.8904 31.2497 29.1666C31.2497 29.4429 31.1399 29.7079 30.9446 29.9032C30.7492 30.0986 30.4843 30.2083 30.208 30.2083H21.8747C21.5984 30.2083 21.3335 30.0986 21.1381 29.9032C20.9428 29.7079 20.833 29.4429 20.833 29.1666ZM21.8747 32.2916C21.5984 32.2916 21.3335 32.4014 21.1381 32.5967C20.9428 32.7921 20.833 33.057 20.833 33.3333C20.833 33.6096 20.9428 33.8745 21.1381 34.0699C21.3335 34.2652 21.5984 34.375 21.8747 34.375H30.208C30.4843 34.375 30.7492 34.2652 30.9446 34.0699C31.1399 33.8745 31.2497 33.6096 31.2497 33.3333C31.2497 33.057 31.1399 32.7921 30.9446 32.5967C30.7492 32.4014 30.4843 32.2916 30.208 32.2916H21.8747Z" fill="#F8F8F8"/>
<path fill-rule="evenodd" clip-rule="evenodd" d="M10.417 28.125C10.417 27.8487 10.5267 27.5838 10.7221 27.3884C10.9174 27.1931 11.1824 27.0833 11.4587 27.0833H16.667C16.9433 27.0833 17.2082 27.1931 17.4036 27.3884C17.5989 27.5838 17.7087 27.8487 17.7087 28.125V33.3333C17.7087 33.6096 17.5989 33.8745 17.4036 34.0699C17.2082 34.2652 16.9433 34.375 16.667 34.375H11.4587C11.1824 34.375 10.9174 34.2652 10.7221 34.0699C10.5267 33.8745 10.417 33.6096 10.417 33.3333V28.125ZM12.5003 29.1666V32.2916H15.6253V29.1666H12.5003Z" fill="#F8F8F8"/>
<path d="M18.445 16.3615C18.6348 16.165 18.7398 15.9019 18.7374 15.6287C18.735 15.3556 18.6255 15.0944 18.4323 14.9012C18.2392 14.7081 17.9779 14.5985 17.7048 14.5962C17.4317 14.5938 17.1686 14.6988 16.9721 14.8885L13.5419 18.3187L12.195 16.9719C11.9986 16.7821 11.7354 16.6771 11.4623 16.6795C11.1892 16.6819 10.9279 16.7914 10.7348 16.9846C10.5417 17.1777 10.4321 17.439 10.4297 17.7121C10.4274 17.9852 10.5323 18.2483 10.7221 18.4448L13.5419 21.2646L18.445 16.3615Z" fill="#F8F8F8"/>
<path fill-rule="evenodd" clip-rule="evenodd" d="M10.4167 6.25C9.3116 6.25 8.25179 6.68899 7.47039 7.47039C6.68899 8.25179 6.25 9.3116 6.25 10.4167V39.5833C6.25 40.6884 6.68899 41.7482 7.47039 42.5296C8.25179 43.311 9.3116 43.75 10.4167 43.75H31.25C32.3551 43.75 33.4149 43.311 34.1963 42.5296C34.9777 41.7482 35.4167 40.6884 35.4167 39.5833V10.4167C35.4167 9.3116 34.9777 8.25179 34.1963 7.47039C33.4149 6.68899 32.3551 6.25 31.25 6.25H10.4167ZM8.33333 10.4167C8.33333 9.86413 8.55283 9.33423 8.94353 8.94353C9.33423 8.55283 9.86413 8.33333 10.4167 8.33333H31.25C31.8025 8.33333 32.3324 8.55283 32.7231 8.94353C33.1138 9.33423 33.3333 9.86413 33.3333 10.4167V39.5833C33.3333 40.1359 33.1138 40.6658 32.7231 41.0565C32.3324 41.4472 31.8025 41.6667 31.25 41.6667H10.4167C9.86413 41.6667 9.33423 41.4472 8.94353 41.0565C8.55283 40.6658 8.33333 40.1359 8.33333 39.5833V10.4167ZM37.5 16.6667C37.5 15.8379 37.8292 15.043 38.4153 14.457C39.0013 13.8709 39.7962 13.5417 40.625 13.5417C41.4538 13.5417 42.2487 13.8709 42.8347 14.457C43.4208 15.043 43.75 15.8379 43.75 16.6667V37.8156L40.625 42.5031L37.5 37.8156V16.6667ZM40.625 15.625C40.3487 15.625 40.0838 15.7347 39.8884 15.9301C39.6931 16.1254 39.5833 16.3904 39.5833 16.6667V18.75H41.6667V16.6667C41.6667 16.3904 41.5569 16.1254 41.3616 15.9301C41.1662 15.7347 40.9013 15.625 40.625 15.625ZM40.625 38.7469L39.5833 37.1844V20.8333H41.6667V37.1844L40.625 38.7469Z" fill="#F8F8F8"/>
</svg>
