<svg width="50" height="50" viewBox="0 0 50 50" fill="none" xmlns="http://www.w3.org/2000/svg">
<path d="M18.125 6.25C17.6277 6.25 17.1508 6.44754 16.7992 6.79917C16.4475 7.1508 16.25 7.62772 16.25 8.125C16.25 8.62228 16.4475 9.0992 16.7992 9.45083C17.1508 9.80246 17.6277 10 18.125 10H33.75C35.0761 10 36.3479 10.5268 37.2855 11.4645C38.2232 12.4021 38.75 13.6739 38.75 15V35C38.75 36.3261 38.2232 37.5979 37.2855 38.5355C36.3479 39.4732 35.0761 40 33.75 40H18.125C17.6277 40 17.1508 40.1975 16.7992 40.5492C16.4475 40.9008 16.25 41.3777 16.25 41.875C16.25 42.3723 16.4475 42.8492 16.7992 43.2008C17.1508 43.5525 17.6277 43.75 18.125 43.75H33.75C36.0706 43.75 38.2962 42.8281 39.9372 41.1872C41.5781 39.5462 42.5 37.3206 42.5 35V15C42.5 12.6794 41.5781 10.4538 39.9372 8.81281C38.2962 7.17187 36.0706 6.25 33.75 6.25H18.125ZM15.6475 34.5025C15.4666 34.6696 15.2546 34.7995 15.0235 34.8847C14.7924 34.9699 14.5468 35.0087 14.3007 34.999C14.0547 34.9892 13.8129 34.9311 13.5893 34.8279C13.3657 34.7247 13.1646 34.5784 12.9975 34.3975L5.4975 26.2725C5.17737 25.9261 4.99959 25.4717 4.99959 25C4.99959 24.5283 5.17737 24.0739 5.4975 23.7275L12.9975 15.6025C13.3353 15.2375 13.8043 15.0216 14.3013 15.0024C14.7982 14.9832 15.2825 15.1622 15.6475 15.5C16.0125 15.8378 16.2284 16.3068 16.2476 16.8038C16.2668 17.3007 16.0878 17.785 15.75 18.15L11.155 23.1275L30.625 23.1275C31.1223 23.1275 31.5992 23.325 31.9508 23.6767C32.3025 24.0283 32.5 24.5052 32.5 25.0025C32.5 25.4998 32.3025 25.9767 31.9508 26.3283C31.5992 26.68 31.1223 26.8775 30.625 26.8775L11.1575 26.8775L15.7525 31.855C15.9196 32.0359 16.0495 32.2479 16.1347 32.479C16.2199 32.7101 16.2587 32.9557 16.249 33.2018C16.2392 33.4478 16.1811 33.6896 16.0779 33.9132C15.9747 34.1368 15.8284 34.3354 15.6475 34.5025Z" fill="white"/>
</svg>
