<svg width="400" height="300" viewBox="0 0 400 300" fill="none" xmlns="http://www.w3.org/2000/svg">
<rect width="400" height="300" fill="#141424"/>
<path d="M233.334 116.667H220.126L212.501 108.333H187.501L179.876 116.667H166.667C164.457 116.667 162.338 117.545 160.775 119.107C159.212 120.67 158.334 122.79 158.334 125V175C158.334 177.21 159.212 179.33 160.775 180.892C162.338 182.455 164.457 183.333 166.667 183.333H233.334C235.544 183.333 237.664 182.455 239.227 180.892C240.789 179.33 241.667 177.21 241.667 175V125C241.667 122.79 240.789 120.67 239.227 119.107C237.664 117.545 235.544 116.667 233.334 116.667ZM233.334 175H166.667V125H183.542L191.167 116.667H208.834L216.459 125H233.334V175ZM200.001 129.167C194.475 129.167 189.176 131.362 185.269 135.269C181.362 139.176 179.167 144.475 179.167 150C179.167 155.525 181.362 160.824 185.269 164.731C189.176 168.638 194.475 170.833 200.001 170.833C205.526 170.833 210.825 168.638 214.732 164.731C218.639 160.824 220.834 155.525 220.834 150C220.834 144.475 218.639 139.176 214.732 135.269C210.825 131.362 205.526 129.167 200.001 129.167ZM200.001 162.5C196.685 162.5 193.506 161.183 191.162 158.839C188.818 156.495 187.501 153.315 187.501 150C187.501 146.685 188.818 143.505 191.162 141.161C193.506 138.817 196.685 137.5 200.001 137.5C203.316 137.5 206.495 138.817 208.839 141.161C211.184 143.505 212.501 146.685 212.501 150C212.501 153.315 211.184 156.495 208.839 158.839C206.495 161.183 203.316 162.5 200.001 162.5Z" fill="white"/>
</svg>
