<svg width="150" height="150" viewBox="0 0 150 150" fill="none" xmlns="http://www.w3.org/2000/svg">
<rect width="150" height="150" fill="#141424"/>
<path d="M108.334 41.6667H95.1256L87.5006 33.3334H62.5006L54.8757 41.6667H41.6673C39.4572 41.6667 37.3376 42.5447 35.7748 44.1075C34.212 45.6703 33.334 47.7899 33.334 50V100C33.334 102.21 34.212 104.33 35.7748 105.893C37.3376 107.455 39.4572 108.333 41.6673 108.333H108.334C110.544 108.333 112.664 107.455 114.227 105.893C115.789 104.33 116.667 102.21 116.667 100V50C116.667 47.7899 115.789 45.6703 114.227 44.1075C112.664 42.5447 110.544 41.6667 108.334 41.6667ZM108.334 100H41.6673V50H58.5423L66.1673 41.6667H83.834L91.459 50H108.334V100ZM75.0006 54.1667C69.4753 54.1667 64.1763 56.3616 60.2693 60.2686C56.3623 64.1757 54.1673 69.4747 54.1673 75C54.1673 80.5254 56.3623 85.8244 60.2693 89.7314C64.1763 93.6384 69.4753 95.8334 75.0006 95.8334C80.526 95.8334 85.825 93.6384 89.732 89.7314C93.639 85.8244 95.834 80.5254 95.834 75C95.834 69.4747 93.639 64.1757 89.732 60.2686C85.825 56.3616 80.526 54.1667 75.0006 54.1667ZM75.0006 87.5C71.6854 87.5 68.506 86.1831 66.1618 83.8389C63.8176 81.4947 62.5006 78.3152 62.5006 75C62.5006 71.6848 63.8176 68.5054 66.1618 66.1612C68.506 63.817 71.6854 62.5 75.0006 62.5C78.3159 62.5 81.4953 63.817 83.8395 66.1612C86.1837 68.5054 87.5006 71.6848 87.5006 75C87.5006 78.3152 86.1837 81.4947 83.8395 83.8389C81.4953 86.1831 78.3159 87.5 75.0006 87.5Z" fill="white"/>
</svg>
