<svg width="50" height="50" viewBox="0 0 50 50" fill="none" xmlns="http://www.w3.org/2000/svg">
<path d="M37.5 32.8125H40.625V40.625H37.5V32.8125ZM31.25 25H34.375V40.625H31.25V25ZM17.1875 40.625C15.1163 40.6225 13.1306 39.7986 11.666 38.334C10.2014 36.8694 9.37748 34.8837 9.375 32.8125H12.5C12.5 33.7396 12.7749 34.6459 13.29 35.4167C13.8051 36.1876 14.5371 36.7884 15.3937 37.1432C16.2502 37.498 17.1927 37.5908 18.102 37.4099C19.0113 37.2291 19.8465 36.7826 20.5021 36.1271C21.1576 35.4715 21.6041 34.6363 21.7849 33.727C21.9658 32.8177 21.873 31.8752 21.5182 31.0187C21.1634 30.1621 20.5626 29.4301 19.7917 28.915C19.0209 28.3999 18.1146 28.125 17.1875 28.125V25C19.2595 25 21.2466 25.8231 22.7118 27.2882C24.1769 28.7534 25 30.7405 25 32.8125C25 34.8845 24.1769 36.8716 22.7118 38.3368C21.2466 39.8019 19.2595 40.625 17.1875 40.625Z" fill="white"/>
<path d="M43.75 3.125H6.25C5.42145 3.12583 4.62708 3.45533 4.0412 4.0412C3.45533 4.62708 3.12583 5.42145 3.125 6.25V43.75C3.12583 44.5785 3.45533 45.3729 4.0412 45.9588C4.62708 46.5447 5.42145 46.8742 6.25 46.875H43.75C44.5784 46.8738 45.3726 46.5441 45.9583 45.9583C46.5441 45.3726 46.8738 44.5784 46.875 43.75V6.25C46.8742 5.42145 46.5447 4.62708 45.9588 4.0412C45.3729 3.45533 44.5785 3.12583 43.75 3.125ZM43.75 17.1875H21.875V6.25H43.75V17.1875ZM18.75 6.25V17.1875H6.25V6.25H18.75ZM6.25 43.75V20.3125H43.75L43.7531 43.75H6.25Z" fill="white"/>
</svg>
