<svg width="50" height="50" viewBox="0 0 50 50" fill="none" xmlns="http://www.w3.org/2000/svg">
<path d="M15 7.5H35C35.663 7.5 36.2989 7.76339 36.7678 8.23223C37.2366 8.70107 37.5 9.33696 37.5 10V22.555C38.3458 22.6316 39.1827 22.7865 40 23.0175V10C40 8.67392 39.4732 7.40215 38.5355 6.46447C37.5979 5.52678 36.3261 5 35 5H15C13.6739 5 12.4021 5.52678 11.4645 6.46447C10.5268 7.40215 10 8.67392 10 10V40C10 41.3261 10.5268 42.5979 11.4645 43.5355C12.4021 44.4732 13.6739 45 15 45H25.6425C25.0058 44.2288 24.455 43.3906 24 42.5H15C14.337 42.5 13.7011 42.2366 13.2322 41.7678C12.7634 41.2989 12.5 40.663 12.5 40H23.0175C22.7862 39.1828 22.6313 38.3459 22.555 37.5H12.5V10C12.5 9.33696 12.7634 8.70107 13.2322 8.23223C13.7011 7.76339 14.337 7.5 15 7.5ZM17.5 10C16.837 10 16.2011 10.2634 15.7322 10.7322C15.2634 11.2011 15 11.837 15 12.5V15C15 15.663 15.2634 16.2989 15.7322 16.7678C16.2011 17.2366 16.837 17.5 17.5 17.5H32.5C33.163 17.5 33.7989 17.2366 34.2678 16.7678C34.7366 16.2989 35 15.663 35 15V12.5C35 11.837 34.7366 11.2011 34.2678 10.7322C33.7989 10.2634 33.163 10 32.5 10H17.5ZM32.5 12.5V15H17.5V12.5H32.5ZM47.5 36.25C47.5 39.2337 46.3147 42.0952 44.205 44.205C42.0952 46.3147 39.2337 47.5 36.25 47.5C33.2663 47.5 30.4048 46.3147 28.295 44.205C26.1853 42.0952 25 39.2337 25 36.25C25 33.2663 26.1853 30.4048 28.295 28.295C30.4048 26.1853 33.2663 25 36.25 25C39.2337 25 42.0952 26.1853 44.205 28.295C46.3147 30.4048 47.5 33.2663 47.5 36.25ZM35.05 31.335C34.8879 31.2237 34.6995 31.1566 34.5035 31.1404C34.3075 31.1241 34.1107 31.1593 33.9325 31.2425C33.787 31.3065 33.6554 31.3982 33.545 31.5125C33.3121 31.7511 33.182 32.0715 33.1825 32.405V40.0925C33.181 40.2582 33.2122 40.4226 33.2744 40.5762C33.3366 40.7298 33.4286 40.8696 33.545 40.9875C33.6591 41.101 33.7919 41.194 33.9375 41.2625C34.1912 41.3787 34.4789 41.3965 34.745 41.3125C34.8602 41.2745 34.9696 41.2207 35.07 41.1525L40.81 37.235C40.9847 37.1199 41.1253 36.9603 41.2175 36.7725C41.3125 36.5834 41.3613 36.3745 41.36 36.1628C41.3587 35.9512 41.3073 35.7429 41.21 35.555C41.1122 35.37 40.9685 35.2133 40.7925 35.1L35.05 31.335Z" fill="white"/>
</svg>
