<svg width="50" height="50" viewBox="0 0 50 50" fill="none" xmlns="http://www.w3.org/2000/svg">
<g clip-path="url(#clip0_1824_1882)">
<path d="M46.1538 46.4871H3.84615V4.17941H29.2692L33.1154 0.333252H3.84615C2.82609 0.333252 1.84781 0.73847 1.12651 1.45976C0.405218 2.18106 0 3.15934 0 4.17941V46.4871C0 47.5072 0.405218 48.4854 1.12651 49.2067C1.84781 49.928 2.82609 50.3333 3.84615 50.3333H46.1538C47.1739 50.3333 48.1522 49.928 48.8735 49.2067C49.5948 48.4854 50 47.5072 50 46.4871V17.6409L46.1538 21.4871V46.4871Z" fill="white"/>
<path d="M49.7235 5.86309L44.5822 0.721793C44.3541 0.492998 44.083 0.311471 43.7845 0.187613C43.4861 0.0637552 43.1662 0 42.843 0C42.5199 0 42.2 0.0637552 41.9015 0.187613C41.6031 0.311471 41.332 0.492998 41.1038 0.721793L20.1877 21.7599L18.4943 29.0981C18.4222 29.4538 18.4298 29.8211 18.5165 30.1735C18.6033 30.5259 18.7671 30.8548 18.9961 31.1363C19.2252 31.4179 19.5138 31.6452 19.8412 31.8019C20.1685 31.9586 20.5266 32.0408 20.8895 32.0425C21.0771 32.0632 21.2664 32.0632 21.454 32.0425L28.8532 30.4101L49.7235 9.34148C49.9523 9.11331 50.1338 8.84224 50.2577 8.5438C50.3816 8.24536 50.4453 7.92541 50.4453 7.60229C50.4453 7.27916 50.3816 6.95921 50.2577 6.66077C50.1338 6.36233 49.9523 6.09126 49.7235 5.86309ZM27.2666 27.5878L21.6828 28.8235L22.9796 23.2855L38.7239 7.43447L43.0261 11.7367L27.2666 27.5878ZM44.75 10.0127L40.4478 5.71053L42.8125 3.30007L47.1452 7.6328L44.75 10.0127Z" fill="white"/>
</g>
<defs>
<clipPath id="clip0_1824_1882">
<rect width="50" height="50" fill="white"/>
</clipPath>
</defs>
</svg>
