<svg width="50" height="50" viewBox="0 0 50 50" fill="none" xmlns="http://www.w3.org/2000/svg">
<path fill-rule="evenodd" clip-rule="evenodd" d="M24.9993 6.32091C24.8785 6.53133 24.7431 6.773 24.5848 7.05841L24.3806 7.42508L24.3327 7.50841C24.1702 7.80841 23.8993 8.30425 23.4473 8.648C22.9868 8.998 22.4306 9.11883 22.1077 9.18966L22.016 9.20841L21.6202 9.298C21.2535 9.38133 20.9556 9.448 20.7035 9.51258C20.8681 9.71466 21.0827 9.96883 21.3618 10.2959L21.6327 10.6126L21.6952 10.6834C21.9202 10.9438 22.2827 11.3605 22.4514 11.9022C22.6181 12.4355 22.5598 12.9855 22.5243 13.3313C22.5207 13.3639 22.5172 13.3966 22.5139 13.4292L22.4723 13.8522C22.441 14.1714 22.4119 14.4909 22.3848 14.8105C22.6035 14.7147 22.8493 14.6022 23.1431 14.4667L23.516 14.2959L23.5993 14.2542C23.8993 14.1147 24.4181 13.8688 24.9993 13.8688C25.5806 13.8688 26.0993 14.1147 26.3993 14.2563L26.4827 14.2959L26.8556 14.4667C27.1473 14.6022 27.3973 14.7167 27.6139 14.8105C27.5868 14.4909 27.5577 14.1714 27.5264 13.8522L27.4848 13.4292C27.4815 13.3966 27.478 13.3639 27.4743 13.3313C27.4389 12.9834 27.3806 12.4355 27.5473 11.9022C27.7139 11.3605 28.0785 10.9438 28.3035 10.6834L28.366 10.6126L28.6368 10.2959C28.916 9.96883 29.1306 9.71466 29.2952 9.51258C29.0431 9.45008 28.7452 9.38133 28.3785 9.298L27.9827 9.20841L27.891 9.18758C27.5681 9.11883 27.0118 8.998 26.5514 8.64591C26.0993 8.30425 25.8285 7.80841 25.666 7.5105L25.6181 7.42508L25.4139 7.05841C25.2556 6.773 25.1223 6.53133 24.9993 6.32091ZM22.9452 3.75008C23.3035 3.28133 23.9535 2.60425 24.9993 2.60425C26.0452 2.60425 26.6952 3.28133 27.0535 3.75008C27.3973 4.19591 27.741 4.81466 28.0952 5.45008L28.1431 5.5355L28.3473 5.90425L28.466 6.11258L28.6723 6.1605L29.0681 6.25008L29.1681 6.27091C29.8493 6.42716 30.5285 6.57925 31.0493 6.7855C31.6243 7.01258 32.4035 7.45216 32.7056 8.42091C33.0014 9.36883 32.6285 10.173 32.3035 10.6917C32.0014 11.1709 31.5431 11.7042 31.0743 12.2522L31.0118 12.3251L30.741 12.6438L30.5702 12.8459C30.5743 12.9209 30.5848 13.0084 30.5952 13.1272L30.6368 13.5501L30.6452 13.6459C30.716 14.3792 30.7848 15.0876 30.7598 15.6542C30.7348 16.2501 30.5931 17.1501 29.7848 17.7605C28.9514 18.3938 28.0348 18.2563 27.4514 18.0876C26.9139 17.9355 26.2785 17.6417 25.6389 17.348L25.5493 17.3063L25.1743 17.1334L24.9993 17.0522L24.8223 17.1355L24.4493 17.3063L24.3577 17.348C23.7202 17.6417 23.0868 17.9355 22.5473 18.0876C21.9639 18.2542 21.0473 18.3938 20.2139 17.7605C19.4077 17.1501 19.2639 16.2501 19.2389 15.6563C19.2139 15.0876 19.2806 14.3792 19.3535 13.6459L19.3618 13.5501L19.4035 13.1272L19.4306 12.8459C19.3734 12.7782 19.3158 12.7108 19.2577 12.6438L18.9868 12.3251L18.9243 12.2522C18.4556 11.7042 17.9973 11.1688 17.6952 10.6897C17.3702 10.173 16.9973 9.36883 17.2931 8.41883C17.5931 7.45425 18.3743 7.01258 18.9493 6.7855C19.4702 6.57925 20.1493 6.42716 20.8306 6.273L20.9285 6.25216L21.3264 6.1605L21.5348 6.11258L21.6514 5.90425L21.8556 5.5355L21.9035 5.45008C22.2577 4.81466 22.6014 4.19591 22.9452 3.75008ZM22.8139 19.2709H27.1848C28.5702 19.2709 29.7639 19.2709 30.7202 19.4001C31.7452 19.5376 32.7264 19.848 33.5223 20.6438C34.3181 21.4397 34.6285 22.4209 34.766 23.4459C34.8952 24.4022 34.8952 25.5959 34.8952 26.9813V32.1188C35.2368 32.0147 35.5889 31.948 35.9452 31.9001C36.9014 31.7709 38.0952 31.7709 39.4806 31.7709H39.6848C41.0702 31.7709 42.2639 31.7709 43.2202 31.9001C44.2452 32.0376 45.2264 32.348 46.0223 33.1438C46.8181 33.9397 47.1285 34.9209 47.266 35.9459C47.3952 36.9022 47.3952 38.0959 47.3952 39.4813V45.8334C47.3952 46.2478 47.2306 46.6452 46.9375 46.9383C46.6445 47.2313 46.2471 47.3959 45.8327 47.3959C45.4183 47.3959 45.0209 47.2313 44.7278 46.9383C44.4348 46.6452 44.2702 46.2478 44.2702 45.8334V39.5834C44.2702 38.0667 44.266 37.0834 44.1702 36.3626C44.0785 35.6855 43.9306 35.473 43.8118 35.3542C43.6931 35.2355 43.4806 35.0876 42.8035 34.9959C42.0806 34.9001 41.0993 34.8959 39.5827 34.8959C38.066 34.8959 37.0827 34.9001 36.3618 34.9959C35.6848 35.0876 35.4723 35.2355 35.3535 35.3542C35.2348 35.473 35.0868 35.6855 34.9952 36.3626C34.8993 37.0855 34.8952 38.0667 34.8952 39.5834V45.8334C34.8952 46.2478 34.7306 46.6452 34.4375 46.9383C34.1445 47.2313 33.7471 47.3959 33.3327 47.3959C32.9183 47.3959 32.5209 47.2313 32.2278 46.9383C31.9348 46.6452 31.7702 46.2478 31.7702 45.8334V27.0834C31.7702 25.5667 31.766 24.5834 31.6702 23.8626C31.5785 23.1855 31.4306 22.973 31.3118 22.8542C31.1931 22.7355 30.9806 22.5876 30.3035 22.4959C29.5806 22.4001 28.5993 22.3959 27.0827 22.3959H22.916C21.3993 22.3959 20.416 22.4001 19.6952 22.4959C19.0181 22.5876 18.8056 22.7355 18.6868 22.8542C18.5681 22.973 18.4202 23.1855 18.3285 23.8626C18.2327 24.5855 18.2285 25.5667 18.2285 27.0834V45.8334C18.2285 46.2478 18.0639 46.6452 17.7709 46.9383C17.4778 47.2313 17.0804 47.3959 16.666 47.3959C16.2516 47.3959 15.8542 47.2313 15.5612 46.9383C15.2681 46.6452 15.1035 46.2478 15.1035 45.8334C15.1035 44.3167 15.0993 43.3334 15.0035 42.6126C14.9118 41.9355 14.7639 41.723 14.6452 41.6042C14.5264 41.4855 14.3139 41.3376 13.6368 41.2459C12.9139 41.1501 11.9327 41.1459 10.416 41.1459C8.89935 41.1459 7.91602 41.1501 7.19518 41.2459C6.5181 41.3376 6.3056 41.4855 6.18685 41.6042C6.0681 41.723 5.92018 41.9355 5.82852 42.6126C5.73268 43.3355 5.72852 44.3167 5.72852 45.8334C5.72852 46.2478 5.5639 46.6452 5.27087 46.9383C4.97784 47.2313 4.58042 47.3959 4.16602 47.3959C3.75161 47.3959 3.35419 47.2313 3.06116 46.9383C2.76814 46.6452 2.60352 46.2478 2.60352 45.8334V45.7292C2.60352 44.3459 2.60352 43.1522 2.73268 42.1959C2.87018 41.1709 3.1806 40.1897 3.97643 39.3938C4.77227 38.598 5.7556 38.2876 6.77852 38.1501C7.73477 38.0209 8.92852 38.0209 10.3139 38.0209H10.5181C11.9035 38.0209 13.0973 38.0209 14.0535 38.1501C14.4098 38.198 14.7618 38.2667 15.1035 38.3688V26.9813C15.1035 25.5959 15.1035 24.4022 15.2327 23.4459C15.3702 22.4209 15.6806 21.4397 16.4764 20.6438C17.2723 19.848 18.2556 19.5376 19.2785 19.4001C20.2348 19.2709 21.4285 19.2709 22.8139 19.2709Z" fill="white"/>
</svg>
