<svg width="150" height="150" viewBox="0 0 150 150" fill="none" xmlns="http://www.w3.org/2000/svg">
<rect width="150" height="150" fill="#141424"/>
<path d="M75 41.6667C71.1323 41.6667 67.4229 43.2032 64.688 45.9381C61.9531 48.673 60.4167 52.3823 60.4167 56.25C60.4167 60.1178 61.9531 63.8271 64.688 66.562C67.4229 69.2969 71.1323 70.8334 75 70.8334C78.8677 70.8334 82.5771 69.2969 85.312 66.562C88.0469 63.8271 89.5833 60.1178 89.5833 56.25C89.5833 52.3823 88.0469 48.673 85.312 45.9381C82.5771 43.2032 78.8677 41.6667 75 41.6667ZM52.0833 56.25C52.0833 50.1722 54.4978 44.3432 58.7955 40.0455C63.0932 35.7478 68.9221 33.3334 75 33.3334C81.0779 33.3334 86.9068 35.7478 91.2045 40.0455C95.5022 44.3432 97.9167 50.1722 97.9167 56.25C97.9167 62.3279 95.5022 68.1569 91.2045 72.4546C86.9068 76.7523 81.0779 79.1667 75 79.1667C68.9221 79.1667 63.0932 76.7523 58.7955 72.4546C54.4978 68.1569 52.0833 62.3279 52.0833 56.25ZM37.5 104.167C37.5 98.6414 39.6949 93.3423 43.6019 89.4353C47.5089 85.5283 52.808 83.3334 58.3333 83.3334H91.6667C97.192 83.3334 102.491 85.5283 106.398 89.4353C110.305 93.3423 112.5 98.6414 112.5 104.167V116.667H37.5V104.167ZM58.3333 91.6667C55.0181 91.6667 51.8387 92.9837 49.4945 95.3279C47.1503 97.6721 45.8333 100.852 45.8333 104.167V108.333H104.167V104.167C104.167 100.852 102.85 97.6721 100.506 95.3279C98.1613 92.9837 94.9819 91.6667 91.6667 91.6667H58.3333Z" fill="white"/>
</svg>
